HIERARCHY
ROOT Hips
{
	OFFSET 0.000000 0.000000 0.000000
	CHANNELS 6 Xposition Yposition Zposition Xrotation Yrotation Zrotation
	JOINT LeftUpLeg_virtual
	{
		OFFSET 0.000000 0.000000 0.000000
		CHANNELS 3 Xrotation Yrotation Zrotation
		JOINT LeftUpLeg
		{
			OFFSET 11.394100 -6.187798 -0.413800
			CHANNELS 3 Xrotation Yrotation Zrotation
			JOINT LeftLeg
			{
				OFFSET 0.430247 -32.302673 3.732800
				CHANNELS 3 Xrotation Yrotation Zrotation
				JOINT LeftFoot
				{
					OFFSET -0.430247 -48.264931 -6.423300
					CHANNELS 3 Xrotation Yrotation Zrotation
					JOINT LeftToeBase
					{
						OFFSET 4.230900 -16.068199 23.438400
						CHANNELS 3 Xrotation Yrotation Zrotation
						JOINT LeftToe_End
						{
							OFFSET 4.510700 0.695400 19.974600
							CHANNELS 3 Xrotation Yrotation Zrotation
							End Site
							{
								OFFSET 0 0 0
							}
						}
					}
				}
			}
		}
	}
	JOINT RightUpLeg_virtual
	{
		OFFSET 0.000000 0.000000 0.000000
		CHANNELS 3 Xrotation Yrotation Zrotation
		JOINT RightUpLeg
		{
			OFFSET -11.333700 -6.187798 -0.413800
			CHANNELS 3 Xrotation Yrotation Zrotation
			JOINT RightLeg
			{
				OFFSET -0.430392 -32.302628 3.733000
				CHANNELS 3 Xrotation Yrotation Zrotation
				JOINT RightFoot
				{
					OFFSET 0.430392 -48.264973 -6.423500
					CHANNELS 3 Xrotation Yrotation Zrotation
					JOINT RightToeBase
					{
						OFFSET -4.230900 -16.068199 23.438400
						CHANNELS 3 Xrotation Yrotation Zrotation
						JOINT RightToe_End
						{
							OFFSET -4.510700 0.695400 19.974600
							CHANNELS 3 Xrotation Yrotation Zrotation
							End Site
							{
								OFFSET 0 0 0
							}
						}
					}
				}
			}
		}
	}
	JOINT Spine_virtual
	{
		OFFSET 0.000000 0.000000 0.000000
		CHANNELS 3 Xrotation Yrotation Zrotation
		JOINT Spine
		{
			OFFSET -0.002400 12.777504 0.315300
			CHANNELS 3 Xrotation Yrotation Zrotation
			JOINT Spine1
			{
				OFFSET -0.002067 5.816869 0.032633
				CHANNELS 3 Xrotation Yrotation Zrotation
				JOINT Spine1_split
				{
					OFFSET -0.002067 5.816869 0.032633
					CHANNELS 3 Xrotation Yrotation Zrotation
					JOINT Spine2
					{
						OFFSET -0.002067 5.816869 0.032633
						CHANNELS 3 Xrotation Yrotation Zrotation
						JOINT Neck_virtual
						{
							OFFSET 0.000000 0.000000 0.000000
							CHANNELS 3 Xrotation Yrotation Zrotation
							JOINT Neck
							{
								OFFSET -0.003700 21.199493 -0.826900
								CHANNELS 3 Xrotation Yrotation Zrotation
								JOINT Head
								{
									OFFSET 0.000000 20.442200 4.834800
									CHANNELS 3 Xrotation Yrotation Zrotation
									JOINT HeadTop_End
									{
										OFFSET 0.000000 34.668396 4.968400
										CHANNELS 3 Xrotation Yrotation Zrotation
										End Site
										{
											OFFSET 0 0 0
										}
									}
								}
							}
						}
						JOINT LeftShoulder_virtual
						{
							OFFSET 0.000000 0.000000 0.000000
							CHANNELS 3 Xrotation Yrotation Zrotation
							JOINT LeftShoulder
							{
								OFFSET 3.288150 8.794197 -1.372250
								CHANNELS 3 Xrotation Yrotation Zrotation
								JOINT LeftShoulder_split
								{
									OFFSET 3.288150 8.794197 -1.372250
									CHANNELS 3 Xrotation Yrotation Zrotation
									JOINT LeftArm
									{
										OFFSET 11.953299 -2.279007 -0.146200
										CHANNELS 3 Xrotation Yrotation Zrotation
										JOINT LeftForeArm
										{
											OFFSET 18.448900 0.000000 0.000000
											CHANNELS 3 Xrotation Yrotation Zrotation
											JOINT LeftHand
											{
												OFFSET 29.527798 0.000000 0.000000
												CHANNELS 3 Xrotation Yrotation Zrotation
												End Site
												{
													OFFSET 0 0 0
												}
											}
										}
									}
								}
							}
						}
						JOINT RightShoulder_virtual
						{
							OFFSET 0.000000 0.000000 0.000000
							CHANNELS 3 Xrotation Yrotation Zrotation
							JOINT RightShoulder
							{
								OFFSET -3.249400 8.794197 -1.372250
								CHANNELS 3 Xrotation Yrotation Zrotation
								JOINT RightShoulder_split
								{
									OFFSET -3.249400 8.794197 -1.372250
									CHANNELS 3 Xrotation Yrotation Zrotation
									JOINT RightArm
									{
										OFFSET -11.953299 -2.279007 -0.146200
										CHANNELS 3 Xrotation Yrotation Zrotation
										JOINT RightForeArm
										{
											OFFSET -18.448900 0.000000 0.000000
											CHANNELS 3 Xrotation Yrotation Zrotation
											JOINT RightHand
											{
												OFFSET -29.527802 0.000000 0.000000
												CHANNELS 3 Xrotation Yrotation Zrotation
												End Site
												{
													OFFSET 0 0 0
												}
											}
										}
									}
								}
							}
						}
					}
				}
			}
		}
	}
}
MOTION
Frames: 8
Frame Time: 0.03333333
4.412313 49.695732 -17.040928 0.000000 0.000000 0.000000 27.814185 -2.837696 3.888933 -103.176073 -15.094986 27.057851 121.944162 -10.231575 -9.526605 -12.335536 -17.089085 -1.209979 -34.683137 -2.323462 -0.007572 0.000000 0.000000 0.000000 30.149189 -2.636118 3.458510 -96.654424 -11.224740 -17.021479 124.424122 12.713472 -7.208697 -49.122529 10.523506 -25.745660 -38.332613 -1.999604 -3.648589 0.000000 0.000000 0.000000 29.104286 -2.481943 2.293607 9.642975 1.791025 -2.437185 24.574889 2.011686 -5.073789 1.746855 -0.379909 0.839193 0.000000 0.000000 0.000000 23.780202 1.991161 -4.860185 -26.218829 -5.693069 1.469787 -27.583355 -8.099990 2.587449 0.000000 0.000000 0.000000 22.808066 2.321148 -5.299978 2.141265 -2.768798 1.296288 0.762665 -6.285633 0.713965 -21.763100 -28.111687 -23.031628 -148.992381 -82.078752 -149.386769 0.000000 0.000000 0.000000 23.752857 2.100521 -5.452477 7.360859 29.593079 8.033174 1.103824 3.504952 -2.229526 -35.662030 5.970512 27.614241 10.051814 72.576422 -20.975574 0.000000 0.000000 0.000000 
5.659376 45.759655 -18.699512 0.000000 0.000000 0.000000 30.902300 -0.567867 4.400902 -96.854821 -20.155584 33.105927 126.084049 -16.438845 -8.389224 -17.847310 -19.035041 -6.814657 -43.938057 -3.260379 1.192123 0.000000 0.000000 0.000000 32.957401 -1.076518 4.024306 -109.178122 -0.052158 -20.898309 127.903092 13.405331 -4.403829 -44.491289 7.137913 -22.693001 -39.567149 -1.442192 -3.290191 0.000000 0.000000 0.000000 32.938024 0.023949 2.598761 8.880866 1.130082 -2.280459 22.640014 1.723877 -4.279821 1.641238 -0.152412 1.156300 0.000000 0.000000 0.000000 21.738653 1.584373 -4.174045 -21.902952 -5.499067 0.861752 -29.287756 -9.049925 1.985201 0.000000 0.000000 0.000000 20.833909 1.929511 -4.420339 1.723157 -2.914127 -0.278017 0.615017 -5.580705 0.385075 -19.895084 -32.913415 -21.980208 -156.479046 -81.852441 -158.168016 0.000000 0.000000 0.000000 21.661636 1.539695 -4.753372 7.150657 31.610115 10.711613 0.989840 3.259542 -1.956094 -38.071693 11.303781 25.283646 6.499552 66.569933 -15.748203 0.000000 0.000000 0.000000 
6.692808 43.067749 -20.225880 0.000000 0.000000 0.000000 33.458344 1.121917 4.782350 -88.858753 -24.618322 39.669144 125.732882 -22.151495 -8.433295 -22.036627 -20.205812 -12.435382 -48.233109 -3.188902 0.600759 0.000000 0.000000 0.000000 35.224877 -0.334628 4.718671 -119.031865 11.100417 -23.537095 129.558430 15.096595 -1.877715 -36.425805 4.021729 -17.353863 -41.329997 -0.502456 -3.334691 0.000000 0.000000 0.000000 36.130246 1.878654 2.978291 8.286868 0.158068 -2.205718 20.458940 1.410622 -3.311759 1.172719 0.103699 1.543004 0.000000 0.000000 0.000000 19.551466 1.151962 -3.325240 -17.968711 -5.256987 0.297001 -30.774121 -9.537468 1.616155 0.000000 0.000000 0.000000 18.795482 1.471268 -3.426881 1.247356 -2.716072 -2.245839 0.090740 -4.492815 -0.354624 -17.353298 -37.567816 -22.767558 -158.550247 -83.928818 -161.323385 0.000000 0.000000 0.000000 19.424657 0.994390 -3.825157 6.879454 32.670011 13.301279 0.430992 2.997629 -1.378274 -39.904246 14.814653 24.236848 4.507600 61.554075 -11.909285 0.000000 0.000000 0.000000 
7.362157 41.392735 -21.171825 0.000000 0.000000 0.000000 35.363806 2.082902 4.953402 -80.829982 -28.057601 46.183072 122.429693 -26.864328 -10.242720 -25.060034 -20.175788 -16.941854 -48.371830 -2.167100 -1.331827 0.000000 0.000000 0.000000 36.842368 -0.478384 5.362936 -125.393913 20.337366 -25.529446 130.311663 17.260609 0.481657 -27.955934 2.358916 -11.121597 -42.067637 0.583675 -3.532513 0.000000 0.000000 0.000000 38.223921 2.975425 3.436298 8.076196 -0.952966 -2.208567 18.402288 1.077665 -2.378287 0.886406 -0.185741 1.688054 0.000000 0.000000 0.000000 17.580552 0.739207 -2.484327 -14.911083 -5.004784 -0.105677 -31.984833 -9.707157 1.619076 0.000000 0.000000 0.000000 17.054470 0.951758 -2.526326 0.753908 -2.336637 -4.251920 -0.825472 -3.023209 -1.222946 -14.856047 -41.137406 -24.812078 -153.843399 -87.549119 -157.383364 0.000000 0.000000 0.000000 17.422621 0.498306 -2.851818 6.679820 32.885162 15.385098 -0.250412 2.571419 -0.481658 -41.367980 16.535775 24.060465 3.291241 58.259301 -8.856453 0.000000 0.000000 0.000000 
7.516554 40.371033 -21.516521 0.000000 0.000000 0.000000 36.496467 2.130836 5.043728 -74.216815 -30.028039 52.327838 118.082988 -29.818290 -13.898418 -27.472430 -19.569225 -18.430507 -48.430833 -1.282858 -3.078484 0.000000 0.000000 0.000000 37.885775 -1.246392 5.844201 -128.189701 26.893381 -27.744374 131.050061 19.391911 2.921629 -21.747433 2.164873 -6.674411 -41.305443 1.530483 -3.618565 0.000000 0.000000 0.000000 39.215207 3.732522 3.772084 8.281761 -2.011146 -2.208407 16.785827 0.732747 -1.640634 0.695637 -0.961625 1.627566 0.000000 0.000000 0.000000 16.117908 0.400296 -1.819957 -12.884104 -4.823955 -0.276546 -32.948368 -9.587283 2.014190 0.000000 0.000000 0.000000 15.834895 0.465753 -1.849769 0.298500 -1.877889 -6.010601 -1.996953 -1.582768 -2.052454 -13.052477 -43.315151 -27.437222 0.739725 -88.472608 -3.196213 0.000000 0.000000 0.000000 15.906915 0.111077 -2.026346 6.692398 32.348766 16.616254 -0.556368 2.384168 0.548157 -42.614144 17.111994 24.113057 2.404513 56.668970 -6.300612 0.000000 0.000000 0.000000 
7.253203 39.874813 -21.589573 0.000000 0.000000 0.000000 36.893311 1.235607 5.099876 -69.852331 -30.480911 57.454793 114.827583 -31.152862 -18.008251 -29.328259 -19.230725 -17.019494 -51.073330 -1.179506 -3.449613 0.000000 0.000000 0.000000 38.244446 -2.364900 6.031924 -128.155673 30.924781 -30.529699 132.199910 21.194584 5.342002 -18.446968 2.545617 -4.971185 -39.336528 2.200071 -3.481920 0.000000 0.000000 0.000000 39.210863 4.100534 3.918949 8.861779 -2.886223 -2.161084 15.761341 0.427739 -1.198823 0.625556 -2.234787 1.587406 0.000000 0.000000 0.000000 15.231093 0.189745 -1.434288 -11.829513 -4.694620 -0.264349 -33.708735 -9.172234 2.702216 0.000000 0.000000 0.000000 15.207087 0.073927 -1.454850 -0.094238 -1.525628 -7.194599 -3.298600 -0.323237 -2.698545 -12.368554 -43.813795 -29.999482 12.341637 -85.801895 8.388141 0.000000 0.000000 0.000000 14.980536 -0.142874 -1.457543 6.879590 31.471176 17.099155 -0.537724 2.848678 1.508834 -43.734084 17.470420 23.995377 1.668891 55.920839 -4.169493 0.000000 0.000000 0.000000 
6.851279 39.848511 -21.231182 0.000000 0.000000 0.000000 36.975912 -0.117369 5.181289 -67.758345 -30.135416 61.026893 114.409596 -31.827298 -20.584819 -30.713243 -19.366810 -14.402859 -54.095392 -1.462089 -3.414155 0.000000 0.000000 0.000000 38.209817 -3.188875 5.928483 -126.523449 33.197001 -33.276173 133.280227 22.843790 7.103451 -17.416035 3.275613 -4.949182 -38.083844 2.647923 -3.339216 0.000000 0.000000 0.000000 38.720995 4.200064 3.887260 9.621109 -3.461164 -2.039401 15.314787 0.176098 -1.009221 0.993452 -3.511057 1.587193 0.000000 0.000000 0.000000 14.861979 0.082353 -1.319363 -11.423199 -4.649680 -0.164165 -34.275614 -8.560958 3.526275 0.000000 0.000000 0.000000 15.057492 -0.197978 -1.276795 -0.417663 -1.256495 -7.789769 -4.382508 0.312520 -2.999877 -12.570075 -43.072464 -32.164925 18.027092 -85.053627 14.333774 0.000000 0.000000 0.000000 14.577429 -0.282614 -1.149264 7.092198 30.495442 17.059582 -0.342718 4.041133 2.352815 -44.736322 18.244364 23.751279 1.082392 55.275211 -2.499113 0.000000 0.000000 0.000000 
6.546998 40.338322 -20.783108 0.000000 0.000000 0.000000 36.938431 -1.074230 5.096621 -67.419609 -29.447080 62.787402 115.663243 -32.444495 -21.708851 -32.019872 -19.619963 -12.029474 -55.110409 -1.635806 -3.632929 0.000000 0.000000 0.000000 38.207945 -2.968768 5.439095 -124.308391 34.666342 -35.287247 133.941212 24.462276 7.822345 -17.405438 4.284463 -5.443289 -38.354968 2.887063 -3.413742 0.000000 0.000000 0.000000 38.113186 3.895968 3.835160 10.235493 -3.729406 -1.871763 15.329415 0.001149 -0.983846 1.275722 -4.196308 1.523169 0.000000 0.000000 0.000000 14.799075 0.054421 -1.427682 -11.239196 -4.717538 -0.195305 -34.518335 -7.807395 4.315299 0.000000 0.000000 0.000000 15.266554 -0.342392 -1.177750 -0.661931 -0.962935 -7.919229 -5.257919 0.373112 -3.077722 -12.939691 -41.758407 -33.762588 28.707736 -86.022360 25.476139 0.000000 0.000000 0.000000 14.500611 -0.335120 -1.041043 7.192174 29.596354 16.864142 -0.300032 5.589306 3.043334 -45.481758 19.486832 23.430252 0.690683 54.653856 -1.329075 0.000000 0.000000 0.000000 
